<svg width="24" height="24" viewBox="0 0 24 24" fill="none" xmlns="http://www.w3.org/2000/svg">
<g clip-path="url(#clip0_277_19508)">
<path d="M18.8689 -0.0795898H4.75127C1.82741 -0.0795898 -0.542847 2.24509 -0.542847 5.11272V18.9589C-0.542847 21.8265 1.82741 24.1512 4.75127 24.1512H18.8689C21.7928 24.1512 24.163 21.8265 24.163 18.9589V5.11272C24.163 2.24509 21.7928 -0.0795898 18.8689 -0.0795898Z" fill="url(#paint0_radial_277_19508)"/>
<path d="M18.8689 -0.0795898H4.75127C1.82741 -0.0795898 -0.542847 2.24509 -0.542847 5.11272V18.9589C-0.542847 21.8265 1.82741 24.1512 4.75127 24.1512H18.8689C21.7928 24.1512 24.163 21.8265 24.163 18.9589V5.11272C24.163 2.24509 21.7928 -0.0795898 18.8689 -0.0795898Z" fill="url(#paint1_radial_277_19508)"/>
<path d="M18.8689 -0.0795898H4.75127C1.82741 -0.0795898 -0.542847 2.24509 -0.542847 5.11272V18.9589C-0.542847 21.8265 1.82741 24.1512 4.75127 24.1512H18.8689C21.7928 24.1512 24.163 21.8265 24.163 18.9589V5.11272C24.163 2.24509 21.7928 -0.0795898 18.8689 -0.0795898Z" fill="url(#paint2_radial_277_19508)"/>
<path d="M16.9865 8.11234C16.9865 8.74957 16.4597 9.26619 15.81 9.26619C15.1603 9.26619 14.6335 8.74957 14.6335 8.11234C14.6335 7.47509 15.1603 6.9585 15.81 6.9585C16.4597 6.9585 16.9865 7.47509 16.9865 8.11234Z" fill="white"/>
<path fill-rule="evenodd" clip-rule="evenodd" d="M11.8101 15.7279C13.8893 15.7279 15.5748 14.0748 15.5748 12.0356C15.5748 9.99638 13.8893 8.34326 11.8101 8.34326C9.73094 8.34326 8.04541 9.99638 8.04541 12.0356C8.04541 14.0748 9.73094 15.7279 11.8101 15.7279ZM11.8101 14.251C13.0577 14.251 14.0689 13.2591 14.0689 12.0356C14.0689 10.812 13.0577 9.82018 11.8101 9.82018C10.5626 9.82018 9.55129 10.812 9.55129 12.0356C9.55129 13.2591 10.5626 14.251 11.8101 14.251Z" fill="white"/>
<path fill-rule="evenodd" clip-rule="evenodd" d="M4.28064 11.7401C4.28064 9.25866 4.28064 8.01789 4.77303 7.07012C5.20616 6.23641 5.89726 5.5586 6.74732 5.1338C7.71368 4.65088 8.97877 4.65088 11.5089 4.65088H12.1112C14.6413 4.65088 15.9064 4.65088 16.8728 5.1338C17.7228 5.5586 18.4139 6.23641 18.847 7.07012C19.3395 8.01789 19.3395 9.25866 19.3395 11.7401V12.3309C19.3395 14.8123 19.3395 16.0531 18.847 17.0008C18.4139 17.8346 17.7228 18.5124 16.8728 18.9372C15.9064 19.4201 14.6413 19.4201 12.1112 19.4201H11.5089C8.97877 19.4201 7.71368 19.4201 6.74732 18.9372C5.89726 18.5124 5.20616 17.8346 4.77303 17.0008C4.28064 16.0531 4.28064 14.8123 4.28064 12.3309V11.7401ZM11.5089 6.1278H12.1112C13.4012 6.1278 14.278 6.12895 14.9558 6.18326C15.616 6.23616 15.9536 6.33205 16.1892 6.44975C16.7558 6.73295 17.2165 7.18483 17.5053 7.7406C17.6253 7.97159 17.7231 8.30272 17.777 8.95028C17.8324 9.61504 17.8336 10.475 17.8336 11.7401V12.3309C17.8336 13.596 17.8324 14.4559 17.777 15.1207C17.7231 15.7683 17.6253 16.0994 17.5053 16.3304C17.2165 16.8862 16.7558 17.338 16.1892 17.6212C15.9536 17.7389 15.616 17.8349 14.9558 17.8877C14.278 17.942 13.4012 17.9432 12.1112 17.9432H11.5089C10.2189 17.9432 9.34214 17.942 8.66434 17.8877C8.00408 17.8349 7.66647 17.7389 7.43095 17.6212C6.86427 17.338 6.40353 16.8862 6.11478 16.3304C5.99478 16.0994 5.89701 15.7683 5.84307 15.1207C5.7877 14.4559 5.78652 13.596 5.78652 12.3309V11.7401C5.78652 10.475 5.7877 9.61504 5.84307 8.95028C5.89701 8.30272 5.99478 7.97159 6.11478 7.7406C6.40353 7.18483 6.86427 6.73295 7.43095 6.44975C7.66647 6.33205 8.00408 6.23616 8.66434 6.18326C9.34214 6.12895 10.2189 6.1278 11.5089 6.1278Z" fill="white"/>
</g>
<defs>
<radialGradient id="paint0_radial_277_19508" cx="0" cy="0" r="1" gradientUnits="userSpaceOnUse" gradientTransform="translate(8.28068 18.0935) rotate(-54.8538) scale(22.225 22.3747)">
<stop stop-color="#B13589"/>
<stop offset="0.79309" stop-color="#C62F94"/>
<stop offset="1" stop-color="#8A3AC8"/>
</radialGradient>
<radialGradient id="paint1_radial_277_19508" cx="0" cy="0" r="1" gradientUnits="userSpaceOnUse" gradientTransform="translate(7.39833 25.0166) rotate(-64.7092) scale(19.621 19.8666)">
<stop stop-color="#E0E8B7"/>
<stop offset="0.444662" stop-color="#FB8A2E"/>
<stop offset="0.71474" stop-color="#E2425C"/>
<stop offset="1" stop-color="#E2425C" stop-opacity="0"/>
</radialGradient>
<radialGradient id="paint2_radial_277_19508" cx="0" cy="0" r="1" gradientUnits="userSpaceOnUse" gradientTransform="translate(-1.86638 0.785795) rotate(-7.97578) scale(34.3024 7.20132)">
<stop offset="0.156701" stop-color="#406ADC"/>
<stop offset="0.467799" stop-color="#6A45BE"/>
<stop offset="1" stop-color="#6A45BE" stop-opacity="0"/>
</radialGradient>
<clipPath id="clip0_277_19508">
<rect width="24" height="24" rx="12" fill="white"/>
</clipPath>
</defs>
</svg>
