<svg width="24" height="24" viewBox="0 0 24 24" fill="none" xmlns="http://www.w3.org/2000/svg">
<g clip-path="url(#clip0_277_19605)">
<path d="M12 23.6668C18.4434 23.6668 23.6667 18.4435 23.6667 12.0002C23.6667 5.55684 18.4434 0.333496 12 0.333496C5.55672 0.333496 0.333374 5.55684 0.333374 12.0002C0.333374 18.4435 5.55672 23.6668 12 23.6668Z" fill="url(#paint0_linear_277_19605)"/>
<path d="M17.8222 7.17384C17.926 6.5026 17.2878 5.97279 16.691 6.23484L4.80401 11.4538C4.37602 11.6418 4.40733 12.2901 4.85122 12.4314L7.30258 13.2121C7.7705 13.3611 8.27708 13.284 8.68566 13.0018L14.2125 9.18342C14.3792 9.06825 14.5608 9.30525 14.4184 9.452L10.4401 13.5537C10.0542 13.9516 10.1307 14.6258 10.595 14.9169L15.0492 17.7101C15.5487 18.0233 16.1914 17.7087 16.2848 17.1049L17.8222 7.17384Z" fill="white"/>
</g>
<defs>
<linearGradient id="paint0_linear_277_19605" x1="12" y1="0.333496" x2="12" y2="23.6668" gradientUnits="userSpaceOnUse">
<stop stop-color="#37BBFE"/>
<stop offset="1" stop-color="#007DBB"/>
</linearGradient>
<clipPath id="clip0_277_19605">
<rect width="24" height="24" fill="white"/>
</clipPath>
</defs>
</svg>
