<svg width="24" height="24" viewBox="0 0 24 24" fill="none" xmlns="http://www.w3.org/2000/svg">
<g clip-path="url(#clip0_277_19666)">
<path d="M23.9986 17.9333C23.9986 18.0647 23.9946 18.3497 23.9867 18.5698C23.9674 19.1085 23.9247 19.8036 23.8601 20.1203C23.7631 20.5962 23.6165 21.0454 23.4255 21.4193C23.1995 21.8616 22.9112 22.2578 22.5687 22.5997C22.2269 22.9409 21.8311 23.2281 21.3894 23.4532C21.0136 23.6447 20.5616 23.7913 20.0829 23.8879C19.7694 23.9512 19.0795 23.9931 18.5443 24.0121C18.3239 24.02 18.0389 24.024 17.908 24.024L6.09017 24.0221C5.95875 24.0221 5.6738 24.0181 5.45365 24.0102C4.91499 23.9908 4.21993 23.9481 3.90321 23.8836C3.42729 23.7865 2.97807 23.64 2.60419 23.449C2.16188 23.223 1.76571 22.9347 1.42379 22.5921C1.08254 22.2503 0.795379 21.8545 0.570309 21.4129C0.37873 21.037 0.232152 20.585 0.13552 20.1064C0.0722383 19.7929 0.0303555 19.103 0.0113008 18.5678C0.00347266 18.3474 -0.000488281 18.0624 -0.000488281 17.9315L0.00138672 6.11363C0.00138672 5.98221 0.00539453 5.69724 0.013293 5.47709C0.0326289 4.93843 0.0753086 4.24336 0.139879 3.92668C0.236934 3.45075 0.383418 3.00153 0.574457 2.62763C0.800465 2.18534 1.08877 1.78915 1.43131 1.44722C1.77312 1.106 2.16893 0.818816 2.61057 0.593723C2.98643 0.402191 3.43847 0.255613 3.91709 0.15898C4.23061 0.0956758 4.9205 0.053793 5.45572 0.0347617C5.67607 0.0269102 5.96114 0.0229492 6.09202 0.0229492L17.9098 0.0248477C18.0413 0.0248477 18.3262 0.0288555 18.5464 0.0367539C19.085 0.0560898 19.7801 0.0987695 20.0968 0.16334C20.5727 0.260395 21.0219 0.406879 21.3958 0.597918C21.8381 0.823926 22.2343 1.11223 22.5762 1.45477C22.9174 1.79658 23.2046 2.19237 23.4297 2.63403C23.6213 3.00989 23.7679 3.46191 23.8645 3.94053C23.9278 4.25407 23.9696 4.94393 23.9887 5.47918C23.9966 5.69953 24.0005 5.98458 24.0005 6.1155L23.9986 17.9333Z" fill="url(#paint0_linear_277_19666)"/>
<path d="M18.3586 5.70097C16.7337 4.07471 14.5728 3.17865 12.2704 3.17773C7.52662 3.17773 3.66574 7.03714 3.66384 11.781C3.66323 13.2974 4.05953 14.7776 4.81267 16.0823L3.59167 20.5408L8.15414 19.3444C9.41123 20.0298 10.8265 20.391 12.267 20.3916H12.2705C17.0139 20.3916 20.8751 16.5317 20.877 11.7878C20.8779 9.48891 19.9836 7.32723 18.3586 5.70097ZM12.2705 18.9385H12.2676C10.984 18.938 9.72503 18.5933 8.62673 17.9417L8.36549 17.7867L5.65807 18.4967L6.38074 15.8579L6.2106 15.5873C5.49454 14.4487 5.11635 13.1327 5.11692 11.7815C5.11846 7.83868 8.3275 4.63086 12.2733 4.63086C14.1839 4.63159 15.98 5.37643 17.3306 6.72809C18.6812 8.07976 19.4246 9.8765 19.4239 11.7873C19.4223 15.7305 16.2133 18.9385 12.2705 18.9385ZM16.1943 13.5827C15.9792 13.4751 14.922 12.955 14.7249 12.8832C14.5278 12.8115 14.3844 12.7756 14.241 12.9909C14.0977 13.2061 13.6856 13.6903 13.5601 13.8338C13.4346 13.9772 13.3092 13.9952 13.0942 13.8876C12.8791 13.78 12.1862 13.553 11.3648 12.8206C10.7255 12.2506 10.2939 11.5465 10.1685 11.3313C10.043 11.116 10.1551 10.9997 10.2628 10.8925C10.3595 10.7962 10.4778 10.6414 10.5854 10.5159C10.6929 10.3904 10.7287 10.3007 10.8004 10.1572C10.8721 10.0137 10.8362 9.88817 10.7825 9.78057C10.7287 9.67297 10.2986 8.61481 10.1194 8.18438C9.94488 7.76518 9.76755 7.8219 9.63555 7.81531C9.51025 7.80908 9.36674 7.80777 9.2234 7.80777C9.08006 7.80777 8.84707 7.86156 8.64996 8.07678C8.45285 8.29201 7.89731 8.81211 7.89731 9.87024C7.89731 10.9284 8.66786 11.9506 8.77539 12.0941C8.88292 12.2376 10.2918 14.4091 12.449 15.3402C12.9621 15.5617 13.3627 15.694 13.675 15.7931C14.1901 15.9567 14.6589 15.9336 15.0295 15.8783C15.4427 15.8166 16.3018 15.3582 16.481 14.8561C16.6602 14.3539 16.6602 13.9235 16.6065 13.8338C16.5527 13.7441 16.4094 13.6903 16.1943 13.5827Z" fill="white"/>
</g>
<defs>
<linearGradient id="paint0_linear_277_19666" x1="12" y1="0.0229492" x2="12" y2="24.024" gradientUnits="userSpaceOnUse">
<stop stop-color="#61FD7D"/>
<stop offset="1" stop-color="#2BB826"/>
</linearGradient>
<clipPath id="clip0_277_19666">
<rect width="24" height="24" rx="12" fill="white"/>
</clipPath>
</defs>
</svg>
